<mxfile host="app.diagrams.net" agent="Mozilla/5.0 (Windows NT 10.0; Win64; x64) AppleWebKit/537.36 (KHTML, like Gecko) Chrome/133.0.0.0 Safari/537.36" version="26.0.16">
  <diagram name="Página-1" id="Ki-nfldOEF43NFYz3uUU">
    <mxGraphModel dx="1050" dy="557" grid="1" gridSize="10" guides="1" tooltips="1" connect="1" arrows="1" fold="1" page="1" pageScale="1" pageWidth="1169" pageHeight="1654" math="0" shadow="0">
      <root>
        <mxCell id="0" />
        <mxCell id="1" parent="0" />
        <mxCell id="DL64uJukqTftezX5HFg2-8" value="" style="edgeStyle=orthogonalEdgeStyle;rounded=0;orthogonalLoop=1;jettySize=auto;html=1;" edge="1" parent="1" source="DL64uJukqTftezX5HFg2-1" target="DL64uJukqTftezX5HFg2-2">
          <mxGeometry relative="1" as="geometry" />
        </mxCell>
        <mxCell id="DL64uJukqTftezX5HFg2-1" value="Monitor Cliente" style="rounded=1;whiteSpace=wrap;html=1;fillColor=#dae8fc;strokeColor=#6c8ebf;fontFamily=Times New Roman;" vertex="1" parent="1">
          <mxGeometry x="235" y="20" width="180" height="100" as="geometry" />
        </mxCell>
        <mxCell id="DL64uJukqTftezX5HFg2-33" style="edgeStyle=orthogonalEdgeStyle;rounded=0;orthogonalLoop=1;jettySize=auto;html=1;exitX=0;exitY=0.75;exitDx=0;exitDy=0;entryX=1;entryY=0.5;entryDx=0;entryDy=0;" edge="1" parent="1" source="DL64uJukqTftezX5HFg2-2" target="DL64uJukqTftezX5HFg2-1">
          <mxGeometry relative="1" as="geometry">
            <mxPoint x="430" y="70" as="targetPoint" />
            <Array as="points">
              <mxPoint x="430" y="95" />
              <mxPoint x="430" y="70" />
            </Array>
          </mxGeometry>
        </mxCell>
        <mxCell id="DL64uJukqTftezX5HFg2-34" style="edgeStyle=orthogonalEdgeStyle;rounded=0;orthogonalLoop=1;jettySize=auto;html=1;exitX=1;exitY=0.75;exitDx=0;exitDy=0;entryX=0;entryY=0.5;entryDx=0;entryDy=0;" edge="1" parent="1" source="DL64uJukqTftezX5HFg2-2" target="DL64uJukqTftezX5HFg2-3">
          <mxGeometry relative="1" as="geometry">
            <mxPoint x="680" y="70" as="targetPoint" />
          </mxGeometry>
        </mxCell>
        <mxCell id="DL64uJukqTftezX5HFg2-2" value="Monitor Bridge" style="rounded=1;whiteSpace=wrap;html=1;fillColor=#dae8fc;strokeColor=#6c8ebf;fontFamily=Times New Roman;" vertex="1" parent="1">
          <mxGeometry x="455" y="20" width="200" height="100" as="geometry" />
        </mxCell>
        <mxCell id="DL64uJukqTftezX5HFg2-7" value="" style="edgeStyle=orthogonalEdgeStyle;rounded=0;orthogonalLoop=1;jettySize=auto;html=1;" edge="1" parent="1" source="DL64uJukqTftezX5HFg2-3" target="DL64uJukqTftezX5HFg2-2">
          <mxGeometry relative="1" as="geometry" />
        </mxCell>
        <mxCell id="DL64uJukqTftezX5HFg2-3" value="Our. Monitor" style="rounded=1;whiteSpace=wrap;html=1;fillColor=#dae8fc;strokeColor=#6c8ebf;fontFamily=Times New Roman;" vertex="1" parent="1">
          <mxGeometry x="695" y="20" width="180" height="100" as="geometry" />
        </mxCell>
        <mxCell id="DL64uJukqTftezX5HFg2-18" value="" style="edgeStyle=orthogonalEdgeStyle;rounded=0;orthogonalLoop=1;jettySize=auto;html=1;" edge="1" parent="1" source="DL64uJukqTftezX5HFg2-9" target="DL64uJukqTftezX5HFg2-1">
          <mxGeometry relative="1" as="geometry" />
        </mxCell>
        <mxCell id="DL64uJukqTftezX5HFg2-9" value="ele pode executar diferentes serviços via estas siglas." style="rounded=1;whiteSpace=wrap;html=1;fillColor=#f8cecc;strokeColor=#b85450;" vertex="1" parent="1">
          <mxGeometry x="80" y="30" width="130" height="80" as="geometry" />
        </mxCell>
        <mxCell id="DL64uJukqTftezX5HFg2-19" value="" style="edgeStyle=orthogonalEdgeStyle;rounded=0;orthogonalLoop=1;jettySize=auto;html=1;" edge="1" parent="1" source="DL64uJukqTftezX5HFg2-10" target="DL64uJukqTftezX5HFg2-9">
          <mxGeometry relative="1" as="geometry" />
        </mxCell>
        <mxCell id="DL64uJukqTftezX5HFg2-10" value="com uma sigla correspondente a um registro de conexão com um consumidor de dados" style="rounded=1;whiteSpace=wrap;html=1;fillColor=#f8cecc;strokeColor=#b85450;" vertex="1" parent="1">
          <mxGeometry x="80" y="160" width="130" height="80" as="geometry" />
        </mxCell>
        <mxCell id="DL64uJukqTftezX5HFg2-20" value="" style="edgeStyle=orthogonalEdgeStyle;rounded=0;orthogonalLoop=1;jettySize=auto;html=1;" edge="1" parent="1" source="DL64uJukqTftezX5HFg2-11" target="DL64uJukqTftezX5HFg2-10">
          <mxGeometry relative="1" as="geometry" />
        </mxCell>
        <mxCell id="DL64uJukqTftezX5HFg2-11" value="Cliente envia uma requisição para o monitor." style="rounded=1;whiteSpace=wrap;html=1;fillColor=#f8cecc;strokeColor=#b85450;" vertex="1" parent="1">
          <mxGeometry x="80" y="290" width="130" height="80" as="geometry" />
        </mxCell>
        <mxCell id="DL64uJukqTftezX5HFg2-26" value="" style="edgeStyle=orthogonalEdgeStyle;rounded=0;orthogonalLoop=1;jettySize=auto;html=1;" edge="1" parent="1" source="DL64uJukqTftezX5HFg2-12" target="DL64uJukqTftezX5HFg2-2">
          <mxGeometry relative="1" as="geometry" />
        </mxCell>
        <mxCell id="DL64uJukqTftezX5HFg2-12" value="mostra os dados para o cliente" style="rounded=1;whiteSpace=wrap;html=1;fillColor=#fff2cc;strokeColor=#d6b656;" vertex="1" parent="1">
          <mxGeometry x="490" y="162" width="130" height="80" as="geometry" />
        </mxCell>
        <mxCell id="DL64uJukqTftezX5HFg2-23" value="" style="edgeStyle=orthogonalEdgeStyle;rounded=0;orthogonalLoop=1;jettySize=auto;html=1;" edge="1" parent="1" source="DL64uJukqTftezX5HFg2-13" target="DL64uJukqTftezX5HFg2-12">
          <mxGeometry relative="1" as="geometry" />
        </mxCell>
        <mxCell id="DL64uJukqTftezX5HFg2-13" value="consome os dados periodicamente" style="rounded=1;whiteSpace=wrap;html=1;fillColor=#fff2cc;strokeColor=#d6b656;" vertex="1" parent="1">
          <mxGeometry x="490" y="262" width="130" height="80" as="geometry" />
        </mxCell>
        <mxCell id="DL64uJukqTftezX5HFg2-22" value="" style="edgeStyle=orthogonalEdgeStyle;rounded=0;orthogonalLoop=1;jettySize=auto;html=1;" edge="1" parent="1" source="DL64uJukqTftezX5HFg2-14" target="DL64uJukqTftezX5HFg2-13">
          <mxGeometry relative="1" as="geometry" />
        </mxCell>
        <mxCell id="DL64uJukqTftezX5HFg2-14" value="executa serviços conforme a sigla informada" style="rounded=1;whiteSpace=wrap;html=1;fillColor=#fff2cc;strokeColor=#d6b656;" vertex="1" parent="1">
          <mxGeometry x="490" y="362" width="130" height="80" as="geometry" />
        </mxCell>
        <mxCell id="DL64uJukqTftezX5HFg2-21" value="" style="edgeStyle=orthogonalEdgeStyle;rounded=0;orthogonalLoop=1;jettySize=auto;html=1;" edge="1" parent="1" source="DL64uJukqTftezX5HFg2-15" target="DL64uJukqTftezX5HFg2-3">
          <mxGeometry relative="1" as="geometry" />
        </mxCell>
        <mxCell id="DL64uJukqTftezX5HFg2-15" value="API que consome os diferentes dados" style="rounded=1;whiteSpace=wrap;html=1;fillColor=#d5e8d4;strokeColor=#82b366;" vertex="1" parent="1">
          <mxGeometry x="910" y="30" width="130" height="80" as="geometry" />
        </mxCell>
        <mxCell id="DL64uJukqTftezX5HFg2-25" value="" style="edgeStyle=orthogonalEdgeStyle;rounded=0;orthogonalLoop=1;jettySize=auto;html=1;" edge="1" parent="1" source="DL64uJukqTftezX5HFg2-16" target="DL64uJukqTftezX5HFg2-15">
          <mxGeometry relative="1" as="geometry" />
        </mxCell>
        <mxCell id="DL64uJukqTftezX5HFg2-16" value="Base dos serviços que serão consumidos&amp;nbsp;" style="rounded=1;whiteSpace=wrap;html=1;fillColor=#d5e8d4;strokeColor=#82b366;" vertex="1" parent="1">
          <mxGeometry x="910" y="140" width="130" height="80" as="geometry" />
        </mxCell>
        <mxCell id="DL64uJukqTftezX5HFg2-24" value="" style="edgeStyle=orthogonalEdgeStyle;rounded=0;orthogonalLoop=1;jettySize=auto;html=1;" edge="1" parent="1" source="DL64uJukqTftezX5HFg2-17" target="DL64uJukqTftezX5HFg2-16">
          <mxGeometry relative="1" as="geometry" />
        </mxCell>
        <mxCell id="DL64uJukqTftezX5HFg2-17" value="Responsabilidade única de cadastrar novas siglas com registros de serviços novos" style="rounded=1;whiteSpace=wrap;html=1;fillColor=#d5e8d4;strokeColor=#82b366;" vertex="1" parent="1">
          <mxGeometry x="885" y="270" width="180" height="80" as="geometry" />
        </mxCell>
        <mxCell id="DL64uJukqTftezX5HFg2-32" value="" style="edgeStyle=orthogonalEdgeStyle;rounded=0;orthogonalLoop=1;jettySize=auto;html=1;" edge="1" parent="1" source="DL64uJukqTftezX5HFg2-30" target="DL64uJukqTftezX5HFg2-31">
          <mxGeometry relative="1" as="geometry" />
        </mxCell>
        <mxCell id="DL64uJukqTftezX5HFg2-30" value="Tecnologias que serão utilizadas no projeto:" style="rounded=0;whiteSpace=wrap;html=1;fillColor=#e1d5e7;strokeColor=#9673a6;" vertex="1" parent="1">
          <mxGeometry x="80" y="430" width="280" height="50" as="geometry" />
        </mxCell>
        <mxCell id="DL64uJukqTftezX5HFg2-31" value="" style="rounded=0;whiteSpace=wrap;html=1;fillColor=#e1d5e7;strokeColor=#9673a6;" vertex="1" parent="1">
          <mxGeometry x="80" y="510" width="280" height="90" as="geometry" />
        </mxCell>
      </root>
    </mxGraphModel>
  </diagram>
</mxfile>
